<svg xmlns="http://www.w3.org/2000/svg" version="1.1" width="32" height="32" viewBox="0 0 32 32">
<title>APP3107</title>
<path d="M14.558 29.965c-1.605-0.142-3.194-0.542-4.467-1.124-0.225-0.11-0.433-0.187-0.46-0.187-0.031 0-0.28-0.126-0.564-0.293-0.284-0.161-0.545-0.274-0.581-0.252-0.031 0.017-0.047 0.008-0.016-0.031 0.031-0.031 0.016-0.079 0-0.079-0.079 0-1.082-0.671-1.564-1.049-0.578-0.455-1.258-1.104-1.881-1.797-0.291-0.324-0.553-0.581-0.583-0.572-0.032 0.008-0.032-0.008-0.016-0.031 0.016-0.031-0.032-0.142-0.11-0.247-0.239-0.291-0.83-1.195-0.83-1.269 0-0.031-0.031-0.047-0.063-0.031s-0.063 0.017-0.047-0.008c0-0.031-0.192-0.48-0.45-1.003-0.614-1.252-1.011-2.468-1.279-3.925-0.126-0.707-0.142-1.027-0.142-2.355 0-1.162 0.032-1.697 0.11-2.192 0.157-0.887 0.408-1.9 0.608-2.436 0.079-0.243 0.189-0.518 0.217-0.61 0.031-0.095 0.11-0.293 0.195-0.447 0.079-0.158 0.126-0.326 0.11-0.378-0.016-0.047 0-0.079 0.016-0.063 0.031 0.017 0.079-0.017 0.11-0.095 0.016-0.063 0.158-0.329 0.296-0.569 0.142-0.24 0.236-0.465 0.214-0.501-0.016-0.031 0-0.047 0.031-0.017s0.079 0.017 0.079-0.008c0-0.031 0.126-0.258 0.291-0.507 0.159-0.249 0.274-0.484 0.25-0.521-0.016-0.031-0.016-0.047 0.016-0.017s0.232-0.18 0.447-0.458c0.517-0.66 1.84-1.984 2.479-2.482 0.277-0.216 0.484-0.417 0.458-0.446-0.032-0.031 0-0.031 0.032-0.003 0.11 0.063 0.558-0.244 0.491-0.326-0.032-0.031-0.032-0.031 0-0.017 0.032 0.017 0.41-0.161 0.847-0.408s0.899-0.483 1.027-0.524c0.126-0.031 0.263-0.095 0.302-0.126 0.126-0.095 1.343-0.523 1.957-0.682 1.365-0.356 2.127-0.449 3.664-0.446 1.167 0.002 1.6 0.031 2.286 0.142 2.523 0.425 4.628 1.342 6.612 2.879 0.715 0.554 2.067 1.951 2.611 2.699 0.271 0.373 0.523 0.713 0.561 0.758 0.032 0.031 0.11 0.183 0.176 0.309 0.063 0.126 0.126 0.214 0.164 0.195 0.032-0.017 0.047-0.008 0.032 0.017 0 0.031 0.184 0.463 0.43 0.962s0.472 0.984 0.501 1.079c0.031 0.095 0.11 0.334 0.191 0.532 0.159 0.421 0.48 1.678 0.586 2.29 0.326 1.919 0.26 3.849-0.202 5.79-0.282 1.183-0.619 2.076-1.241 3.281-0.17 0.329-0.291 0.617-0.269 0.638 0.016 0.017 0 0.031-0.032 0.031s-0.162 0.158-0.285 0.343c-0.912 1.425-2.374 2.972-3.716 3.93-0.443 0.317-0.876 0.606-0.962 0.647-0.079 0.031-0.142 0.095-0.11 0.142 0.016 0.031 0 0.047-0.032 0.031s-0.299 0.095-0.581 0.252c-0.284 0.161-0.539 0.293-0.569 0.293-0.032 0-0.178 0.063-0.329 0.142-0.821 0.406-2.258 0.835-3.513 1.046-0.855 0.142-2.604 0.208-3.5 0.126zM16.238 21.58c0.581-0.409 0.792-0.934 0.639-1.578-0.079-0.321-0.157-0.421-1.142-1.425-0.583-0.594-1.077-1.128-1.098-1.186-0.016-0.063 0-0.142 0.031-0.181 0.047-0.047 1.050-0.079 3.479-0.079 3.832-0.001 3.718 0.008 4.191-0.502 0.29-0.317 0.381-0.592 0.346-1.058-0.032-0.502-0.317-0.913-0.784-1.147l-0.342-0.17h-3.409c-3.422 0-3.566-0.008-3.566-0.22 0-0.031 0.468-0.537 1.039-1.115s1.093-1.154 1.158-1.28c0.079-0.142 0.126-0.376 0.126-0.655 0-0.376-0.016-0.463-0.216-0.742-0.386-0.561-1.143-0.781-1.74-0.507-0.175 0.079-1.202 1.062-3.157 3.016-1.592 1.593-2.895 2.916-2.895 2.941 0 0.031 1.302 1.351 2.895 2.946 1.918 1.921 2.983 2.942 3.157 3.024 0.362 0.17 0.984 0.126 1.287-0.095z" fill="#ffffff"/>
</svg>